<mxfile host="www.draw.io" modified="2019-12-24T08:52:16.050Z" agent="Mozilla/5.0 (X11; Linux x86_64) AppleWebKit/537.36 (KHTML, like Gecko) Chrome/79.0.3945.88 Safari/537.36" etag="zhUPkhKY_rnjcG7iaKeE" version="12.4.3" type="github" pages="1">
  <diagram id="LP19ljsqffcebNAXlvKP" name="第 1 页">
    <mxGraphModel dx="1049" dy="448" grid="1" gridSize="10" guides="1" tooltips="1" connect="1" arrows="1" fold="1" page="1" pageScale="1" pageWidth="1600" pageHeight="900" math="0" shadow="0">
      <root>
        <mxCell id="0"/>
        <mxCell id="1" parent="0"/>
        <mxCell id="FgspnRTVD1OUUb8VOJBo-12" value="公共工具管理" style="swimlane;fontStyle=0;childLayout=stackLayout;horizontal=1;startSize=26;fillColor=none;horizontalStack=0;resizeParent=1;resizeParentMax=0;resizeLast=0;collapsible=1;marginBottom=0;" vertex="1" parent="1">
          <mxGeometry x="430" y="250" width="140" height="104" as="geometry">
            <mxRectangle x="70" y="50" width="90" height="26" as="alternateBounds"/>
          </mxGeometry>
        </mxCell>
        <mxCell id="FgspnRTVD1OUUb8VOJBo-13" value="+ 邮件工具" style="text;strokeColor=none;fillColor=none;align=left;verticalAlign=top;spacingLeft=4;spacingRight=4;overflow=hidden;rotatable=0;points=[[0,0.5],[1,0.5]];portConstraint=eastwest;" vertex="1" parent="FgspnRTVD1OUUb8VOJBo-12">
          <mxGeometry y="26" width="140" height="26" as="geometry"/>
        </mxCell>
        <mxCell id="FgspnRTVD1OUUb8VOJBo-14" value="+ 加解密工具" style="text;strokeColor=none;fillColor=none;align=left;verticalAlign=top;spacingLeft=4;spacingRight=4;overflow=hidden;rotatable=0;points=[[0,0.5],[1,0.5]];portConstraint=eastwest;" vertex="1" parent="FgspnRTVD1OUUb8VOJBo-12">
          <mxGeometry y="52" width="140" height="26" as="geometry"/>
        </mxCell>
        <mxCell id="FgspnRTVD1OUUb8VOJBo-15" value="+ 文件操作工具" style="text;strokeColor=none;fillColor=none;align=left;verticalAlign=top;spacingLeft=4;spacingRight=4;overflow=hidden;rotatable=0;points=[[0,0.5],[1,0.5]];portConstraint=eastwest;" vertex="1" parent="FgspnRTVD1OUUb8VOJBo-12">
          <mxGeometry y="78" width="140" height="26" as="geometry"/>
        </mxCell>
        <mxCell id="FgspnRTVD1OUUb8VOJBo-30" value="" style="group" vertex="1" connectable="0" parent="1">
          <mxGeometry x="225" y="330" width="150" height="190" as="geometry"/>
        </mxCell>
        <mxCell id="FgspnRTVD1OUUb8VOJBo-20" value="元数据管理" style="swimlane;fontStyle=0;childLayout=stackLayout;horizontal=1;startSize=26;fillColor=none;horizontalStack=0;resizeParent=1;resizeParentMax=0;resizeLast=0;collapsible=1;marginBottom=0;container=0;" vertex="1" parent="FgspnRTVD1OUUb8VOJBo-30">
          <mxGeometry width="150" height="190" as="geometry">
            <mxRectangle x="70" y="50" width="90" height="26" as="alternateBounds"/>
          </mxGeometry>
        </mxCell>
        <mxCell id="FgspnRTVD1OUUb8VOJBo-21" value="+ 数据源管理" style="text;strokeColor=none;fillColor=none;align=left;verticalAlign=top;spacingLeft=4;spacingRight=4;overflow=hidden;rotatable=0;points=[[0,0.5],[1,0.5]];portConstraint=eastwest;" vertex="1" parent="FgspnRTVD1OUUb8VOJBo-30">
          <mxGeometry y="36" width="150" height="26" as="geometry"/>
        </mxCell>
        <mxCell id="FgspnRTVD1OUUb8VOJBo-22" value="+ 数据源元数据同步" style="text;strokeColor=none;fillColor=none;align=left;verticalAlign=top;spacingLeft=4;spacingRight=4;overflow=hidden;rotatable=0;points=[[0,0.5],[1,0.5]];portConstraint=eastwest;" vertex="1" parent="FgspnRTVD1OUUb8VOJBo-30">
          <mxGeometry y="62" width="150" height="26" as="geometry"/>
        </mxCell>
        <mxCell id="FgspnRTVD1OUUb8VOJBo-23" value="+ ETL(shell)元数据同步&#xa;&#xa;+ 自定义表结构&#xa;" style="text;strokeColor=none;fillColor=none;align=left;verticalAlign=top;spacingLeft=4;spacingRight=4;overflow=hidden;rotatable=0;points=[[0,0.5],[1,0.5]];portConstraint=eastwest;" vertex="1" parent="FgspnRTVD1OUUb8VOJBo-30">
          <mxGeometry y="88" width="150" height="26" as="geometry"/>
        </mxCell>
        <mxCell id="FgspnRTVD1OUUb8VOJBo-27" value="+ 元数据变更管理" style="text;strokeColor=none;fillColor=none;align=left;verticalAlign=top;spacingLeft=4;spacingRight=4;overflow=hidden;rotatable=0;points=[[0,0.5],[1,0.5]];portConstraint=eastwest;" vertex="1" parent="FgspnRTVD1OUUb8VOJBo-30">
          <mxGeometry y="114" width="150" height="26" as="geometry"/>
        </mxCell>
        <mxCell id="FgspnRTVD1OUUb8VOJBo-28" value="+ 自定义表结构" style="text;strokeColor=none;fillColor=none;align=left;verticalAlign=top;spacingLeft=4;spacingRight=4;overflow=hidden;rotatable=0;points=[[0,0.5],[1,0.5]];portConstraint=eastwest;" vertex="1" parent="FgspnRTVD1OUUb8VOJBo-30">
          <mxGeometry y="140" width="150" height="26" as="geometry"/>
        </mxCell>
        <mxCell id="FgspnRTVD1OUUb8VOJBo-31" value="" style="group" vertex="1" connectable="0" parent="1">
          <mxGeometry x="640" y="330" width="150" height="190" as="geometry"/>
        </mxCell>
        <mxCell id="FgspnRTVD1OUUb8VOJBo-32" value="主数据管理" style="swimlane;fontStyle=0;childLayout=stackLayout;horizontal=1;startSize=26;fillColor=none;horizontalStack=0;resizeParent=1;resizeParentMax=0;resizeLast=0;collapsible=1;marginBottom=0;container=0;" vertex="1" parent="FgspnRTVD1OUUb8VOJBo-31">
          <mxGeometry width="150" height="190" as="geometry">
            <mxRectangle x="70" y="50" width="90" height="26" as="alternateBounds"/>
          </mxGeometry>
        </mxCell>
        <mxCell id="FgspnRTVD1OUUb8VOJBo-33" value="+ 主数据查询" style="text;strokeColor=none;fillColor=none;align=left;verticalAlign=top;spacingLeft=4;spacingRight=4;overflow=hidden;rotatable=0;points=[[0,0.5],[1,0.5]];portConstraint=eastwest;" vertex="1" parent="FgspnRTVD1OUUb8VOJBo-31">
          <mxGeometry y="36" width="150" height="26" as="geometry"/>
        </mxCell>
        <mxCell id="FgspnRTVD1OUUb8VOJBo-43" value="" style="group" vertex="1" connectable="0" parent="1">
          <mxGeometry x="220" y="20" width="150" height="190" as="geometry"/>
        </mxCell>
        <mxCell id="FgspnRTVD1OUUb8VOJBo-44" value="数据安全管理" style="swimlane;fontStyle=0;childLayout=stackLayout;horizontal=1;startSize=26;fillColor=none;horizontalStack=0;resizeParent=1;resizeParentMax=0;resizeLast=0;collapsible=1;marginBottom=0;container=0;" vertex="1" parent="FgspnRTVD1OUUb8VOJBo-43">
          <mxGeometry width="150" height="190" as="geometry">
            <mxRectangle x="70" y="50" width="90" height="26" as="alternateBounds"/>
          </mxGeometry>
        </mxCell>
        <mxCell id="FgspnRTVD1OUUb8VOJBo-45" value="+ 主数据SQL审计" style="text;strokeColor=none;fillColor=none;align=left;verticalAlign=top;spacingLeft=4;spacingRight=4;overflow=hidden;rotatable=0;points=[[0,0.5],[1,0.5]];portConstraint=eastwest;" vertex="1" parent="FgspnRTVD1OUUb8VOJBo-43">
          <mxGeometry y="36" width="150" height="26" as="geometry"/>
        </mxCell>
        <mxCell id="FgspnRTVD1OUUb8VOJBo-46" value="+ 主数据上传下载审核" style="text;strokeColor=none;fillColor=none;align=left;verticalAlign=top;spacingLeft=4;spacingRight=4;overflow=hidden;rotatable=0;points=[[0,0.5],[1,0.5]];portConstraint=eastwest;" vertex="1" parent="FgspnRTVD1OUUb8VOJBo-43">
          <mxGeometry y="62" width="150" height="26" as="geometry"/>
        </mxCell>
        <mxCell id="FgspnRTVD1OUUb8VOJBo-47" value="+ 主数据敏感数据审核&#xa;" style="text;strokeColor=none;fillColor=none;align=left;verticalAlign=top;spacingLeft=4;spacingRight=4;overflow=hidden;rotatable=0;points=[[0,0.5],[1,0.5]];portConstraint=eastwest;" vertex="1" parent="FgspnRTVD1OUUb8VOJBo-43">
          <mxGeometry y="88" width="150" height="26" as="geometry"/>
        </mxCell>
        <mxCell id="FgspnRTVD1OUUb8VOJBo-48" value="+ 数据权限控制" style="text;strokeColor=none;fillColor=none;align=left;verticalAlign=top;spacingLeft=4;spacingRight=4;overflow=hidden;rotatable=0;points=[[0,0.5],[1,0.5]];portConstraint=eastwest;" vertex="1" parent="FgspnRTVD1OUUb8VOJBo-43">
          <mxGeometry y="114" width="150" height="26" as="geometry"/>
        </mxCell>
        <mxCell id="FgspnRTVD1OUUb8VOJBo-49" value="+ " style="text;strokeColor=none;fillColor=none;align=left;verticalAlign=top;spacingLeft=4;spacingRight=4;overflow=hidden;rotatable=0;points=[[0,0.5],[1,0.5]];portConstraint=eastwest;" vertex="1" parent="FgspnRTVD1OUUb8VOJBo-43">
          <mxGeometry y="140" width="150" height="26" as="geometry"/>
        </mxCell>
        <mxCell id="FgspnRTVD1OUUb8VOJBo-50" value="" style="group" vertex="1" connectable="0" parent="1">
          <mxGeometry x="630" y="10" width="150" height="190" as="geometry"/>
        </mxCell>
        <mxCell id="FgspnRTVD1OUUb8VOJBo-51" value="数据质量管理" style="swimlane;fontStyle=0;childLayout=stackLayout;horizontal=1;startSize=26;fillColor=none;horizontalStack=0;resizeParent=1;resizeParentMax=0;resizeLast=0;collapsible=1;marginBottom=0;container=0;" vertex="1" parent="FgspnRTVD1OUUb8VOJBo-50">
          <mxGeometry width="150" height="190" as="geometry">
            <mxRectangle x="70" y="50" width="90" height="26" as="alternateBounds"/>
          </mxGeometry>
        </mxCell>
        <mxCell id="FgspnRTVD1OUUb8VOJBo-52" value="+ 元数据质量管理" style="text;strokeColor=none;fillColor=none;align=left;verticalAlign=top;spacingLeft=4;spacingRight=4;overflow=hidden;rotatable=0;points=[[0,0.5],[1,0.5]];portConstraint=eastwest;" vertex="1" parent="FgspnRTVD1OUUb8VOJBo-50">
          <mxGeometry y="36" width="150" height="26" as="geometry"/>
        </mxCell>
        <mxCell id="FgspnRTVD1OUUb8VOJBo-53" value="+ 主数据质量管理" style="text;strokeColor=none;fillColor=none;align=left;verticalAlign=top;spacingLeft=4;spacingRight=4;overflow=hidden;rotatable=0;points=[[0,0.5],[1,0.5]];portConstraint=eastwest;" vertex="1" parent="FgspnRTVD1OUUb8VOJBo-50">
          <mxGeometry y="62" width="150" height="26" as="geometry"/>
        </mxCell>
        <mxCell id="FgspnRTVD1OUUb8VOJBo-54" value="+ 数据字典项管理" style="text;strokeColor=none;fillColor=none;align=left;verticalAlign=top;spacingLeft=4;spacingRight=4;overflow=hidden;rotatable=0;points=[[0,0.5],[1,0.5]];portConstraint=eastwest;" vertex="1" parent="FgspnRTVD1OUUb8VOJBo-50">
          <mxGeometry y="88" width="150" height="26" as="geometry"/>
        </mxCell>
        <mxCell id="FgspnRTVD1OUUb8VOJBo-55" value="+ " style="text;strokeColor=none;fillColor=none;align=left;verticalAlign=top;spacingLeft=4;spacingRight=4;overflow=hidden;rotatable=0;points=[[0,0.5],[1,0.5]];portConstraint=eastwest;" vertex="1" parent="FgspnRTVD1OUUb8VOJBo-50">
          <mxGeometry y="114" width="150" height="26" as="geometry"/>
        </mxCell>
        <mxCell id="FgspnRTVD1OUUb8VOJBo-56" value="+ " style="text;strokeColor=none;fillColor=none;align=left;verticalAlign=top;spacingLeft=4;spacingRight=4;overflow=hidden;rotatable=0;points=[[0,0.5],[1,0.5]];portConstraint=eastwest;" vertex="1" parent="FgspnRTVD1OUUb8VOJBo-50">
          <mxGeometry y="140" width="150" height="26" as="geometry"/>
        </mxCell>
        <mxCell id="FgspnRTVD1OUUb8VOJBo-57" value="" style="group" vertex="1" connectable="0" parent="1">
          <mxGeometry x="430" y="600" width="150" height="190" as="geometry"/>
        </mxCell>
        <mxCell id="FgspnRTVD1OUUb8VOJBo-58" value="任务管理" style="swimlane;fontStyle=0;childLayout=stackLayout;horizontal=1;startSize=26;fillColor=none;horizontalStack=0;resizeParent=1;resizeParentMax=0;resizeLast=0;collapsible=1;marginBottom=0;container=0;" vertex="1" parent="FgspnRTVD1OUUb8VOJBo-57">
          <mxGeometry width="150" height="190" as="geometry">
            <mxRectangle x="70" y="50" width="90" height="26" as="alternateBounds"/>
          </mxGeometry>
        </mxCell>
        <mxCell id="FgspnRTVD1OUUb8VOJBo-59" value="+ 任务管理" style="text;strokeColor=none;fillColor=none;align=left;verticalAlign=top;spacingLeft=4;spacingRight=4;overflow=hidden;rotatable=0;points=[[0,0.5],[1,0.5]];portConstraint=eastwest;" vertex="1" parent="FgspnRTVD1OUUb8VOJBo-57">
          <mxGeometry y="36" width="150" height="26" as="geometry"/>
        </mxCell>
        <mxCell id="FgspnRTVD1OUUb8VOJBo-60" value="+ " style="text;strokeColor=none;fillColor=none;align=left;verticalAlign=top;spacingLeft=4;spacingRight=4;overflow=hidden;rotatable=0;points=[[0,0.5],[1,0.5]];portConstraint=eastwest;" vertex="1" parent="FgspnRTVD1OUUb8VOJBo-57">
          <mxGeometry y="62" width="150" height="26" as="geometry"/>
        </mxCell>
        <mxCell id="FgspnRTVD1OUUb8VOJBo-61" value="+ " style="text;strokeColor=none;fillColor=none;align=left;verticalAlign=top;spacingLeft=4;spacingRight=4;overflow=hidden;rotatable=0;points=[[0,0.5],[1,0.5]];portConstraint=eastwest;" vertex="1" parent="FgspnRTVD1OUUb8VOJBo-57">
          <mxGeometry y="88" width="150" height="26" as="geometry"/>
        </mxCell>
        <mxCell id="FgspnRTVD1OUUb8VOJBo-62" value="+ " style="text;strokeColor=none;fillColor=none;align=left;verticalAlign=top;spacingLeft=4;spacingRight=4;overflow=hidden;rotatable=0;points=[[0,0.5],[1,0.5]];portConstraint=eastwest;" vertex="1" parent="FgspnRTVD1OUUb8VOJBo-57">
          <mxGeometry y="114" width="150" height="26" as="geometry"/>
        </mxCell>
        <mxCell id="FgspnRTVD1OUUb8VOJBo-63" value="+ " style="text;strokeColor=none;fillColor=none;align=left;verticalAlign=top;spacingLeft=4;spacingRight=4;overflow=hidden;rotatable=0;points=[[0,0.5],[1,0.5]];portConstraint=eastwest;" vertex="1" parent="FgspnRTVD1OUUb8VOJBo-57">
          <mxGeometry y="140" width="150" height="26" as="geometry"/>
        </mxCell>
      </root>
    </mxGraphModel>
  </diagram>
</mxfile>
